<?xml version="1.0" encoding="utf-8"?>
<!-- Generator: Adobe Illustrator 18.1.1, SVG Export Plug-In . SVG Version: 6.00 Build 0)  -->
<svg version="1.1"
	xmlns="http://www.w3.org/2000/svg"
	xmlns:xlink="http://www.w3.org/1999/xlink" x="0px" y="0px" viewBox="0 0 1920 1080" enable-background="new 0 0 1920 1080" xml:space="preserve">
	<g id="Layer_1">
		<g>
			<line fill="#f6f7f7" x1="70.7" y1="929" x2="607.3" y2="0"/>
			<g>
				<path fill="#f6f7f7" d="M90.2,940.3c4.8-8.3,9.6-16.6,14.4-24.9c13-22.5,26-45,39-67.6c19.3-33.4,38.6-66.8,57.9-100.2
				c23.5-40.6,46.9-81.2,70.4-121.9c25.7-44.5,51.4-89,77.1-133.5c25.9-44.9,51.9-89.8,77.8-134.7c24.2-41.9,48.4-83.7,72.6-125.6
				c20.5-35.5,41-71,61.5-106.5c14.7-25.5,29.5-51,44.2-76.5c6.9-12,14-24,20.8-36.1c0.3-0.5,0.6-1,0.9-1.5
				c5.9-10.2,2.7-25.1-8.1-30.8c-10.7-5.7-24.5-2.8-30.8,8.1c-4.8,8.3-9.6,16.6-14.4,24.9c-13,22.5-26,45-39,67.6
				c-19.3,33.4-38.6,66.8-57.9,100.2c-23.5,40.6-46.9,81.2-70.4,121.9c-25.7,44.5-51.4,89-77.1,133.5
				c-25.9,44.9-51.9,89.8-77.8,134.7c-24.2,41.9-48.4,83.8-72.6,125.6c-20.5,35.5-41,71-61.5,106.5C102.5,829,87.7,854.5,73,880
				c-6.9,12-14,24-20.8,36.1c-0.3,0.5-0.6,1-0.9,1.5c-5.9,10.2-2.7,25.1,8.1,30.8C70.1,954.1,83.9,951.2,90.2,940.3L90.2,940.3z"/>
			</g>
		</g>
		<g>
			<line fill="#f6f7f7" x1="196" y1="929" x2="732.6" y2="0"/>
			<g>
				<path fill="#f6f7f7" d="M215.4,940.3c4.8-8.3,9.6-16.6,14.4-24.9c13-22.5,26-45,39-67.6c19.3-33.4,38.6-66.8,57.9-100.2
				c23.5-40.6,46.9-81.2,70.4-121.9c25.7-44.5,51.4-89,77.1-133.5c25.9-44.9,51.9-89.8,77.8-134.7c24.2-41.9,48.4-83.7,72.6-125.6
				c20.5-35.5,41-71,61.5-106.5c14.7-25.5,29.5-51,44.2-76.5c6.9-12,14-24,20.8-36.1c0.3-0.5,0.6-1,0.9-1.5
				c5.9-10.2,2.7-25.1-8.1-30.8c-10.7-5.7-24.5-2.8-30.8,8.1c-4.8,8.3-9.6,16.6-14.4,24.9c-13,22.5-26,45-39,67.6
				c-19.3,33.4-38.6,66.8-57.9,100.2c-23.5,40.6-46.9,81.2-70.4,121.9c-25.7,44.5-51.4,89-77.1,133.5
				c-25.9,44.9-51.9,89.8-77.8,134.7c-24.2,41.9-48.4,83.8-72.6,125.6c-20.5,35.5-41,71-61.5,106.5c-14.7,25.5-29.5,51-44.2,76.5
				c-6.9,12-14,24-20.8,36.1c-0.3,0.5-0.6,1-0.9,1.5c-5.9,10.2-2.7,25.1,8.1,30.8C195.4,954.1,209.1,951.2,215.4,940.3L215.4,940.3z
				"/>
			</g>
		</g>
		<circle fill="#f6f7f7" stroke="#f6f7f7" stroke-width="3" stroke-miterlimit="10" cx="30.7" cy="994.6" r="16.7"/>
		<circle fill="#f6f7f7" stroke="#f6f7f7" stroke-width="3" stroke-miterlimit="10" cx="157.7" cy="994.6" r="16.7"/>
	</g>
	<g id="Layer_2">
		<g>
			<line fill="#f6f7f7" x1="1838.2" y1="151" x2="1301.7" y2="1080"/>
			<g>
				<path fill="#f6f7f7" d="M1818.8,139.7c-4.8,8.3-9.6,16.6-14.4,24.9c-13,22.5-26,45-39,67.6c-19.3,33.4-38.6,66.8-57.9,100.2
				c-23.5,40.6-46.9,81.2-70.4,121.9c-25.7,44.5-51.4,89-77.1,133.5c-25.9,44.9-51.9,89.8-77.8,134.7
				c-24.2,41.9-48.4,83.7-72.6,125.6c-20.5,35.5-41,71-61.5,106.5c-14.7,25.5-29.5,51-44.2,76.5c-6.9,12-14,24-20.8,36.1
				c-0.3,0.5-0.6,1-0.9,1.5c-5.9,10.2-2.7,25.1,8.1,30.8c10.7,5.7,24.5,2.8,30.8-8.1c4.8-8.3,9.6-16.6,14.4-24.9
				c13-22.5,26-45,39-67.6c19.3-33.4,38.6-66.8,57.9-100.2c23.5-40.6,46.9-81.2,70.4-121.9c25.7-44.5,51.4-89,77.1-133.5
				c25.9-44.9,51.9-89.8,77.8-134.7c24.2-41.9,48.4-83.7,72.6-125.6c20.5-35.5,41-71,61.5-106.5c14.7-25.5,29.5-51,44.2-76.5
				c6.9-12,14-24,20.8-36.1c0.3-0.5,0.6-1,0.9-1.5c5.9-10.2,2.7-25.1-8.1-30.8C1838.9,125.9,1825.1,128.8,1818.8,139.7L1818.8,139.7
				z"/>
			</g>
		</g>
		<g>
			<line fill="#f6f7f7" x1="1713" y1="151" x2="1176.4" y2="1080"/>
			<g>
				<path fill="#f6f7f7" d="M1693.6,139.7c-4.8,8.3-9.6,16.6-14.4,24.9c-13,22.5-26,45-39,67.6c-19.3,33.4-38.6,66.8-57.9,100.2
				c-23.5,40.6-46.9,81.2-70.4,121.9c-25.7,44.5-51.4,89-77.1,133.5c-25.9,44.9-51.9,89.8-77.8,134.7
				c-24.2,41.9-48.4,83.7-72.6,125.6c-20.5,35.5-41,71-61.5,106.5c-14.7,25.5-29.5,51-44.2,76.5c-6.9,12-14,24-20.8,36.1
				c-0.3,0.5-0.6,1-0.9,1.5c-5.9,10.2-2.7,25.1,8.1,30.8c10.7,5.7,24.5,2.8,30.8-8.1c4.8-8.3,9.6-16.6,14.4-24.9
				c13-22.5,26-45,39-67.6c19.3-33.4,38.6-66.8,57.9-100.2c23.5-40.6,46.9-81.2,70.4-121.9c25.7-44.5,51.4-89,77.1-133.5
				c25.9-44.9,51.9-89.8,77.8-134.7c24.2-41.9,48.4-83.7,72.6-125.6c20.5-35.5,41-71,61.5-106.5c14.7-25.5,29.5-51,44.2-76.5
				c6.9-12,14-24,20.8-36.1c0.3-0.5,0.6-1,0.9-1.5c5.9-10.2,2.7-25.1-8.1-30.8C1713.6,125.9,1699.9,128.8,1693.6,139.7L1693.6,139.7
				z"/>
			</g>
		</g>
		<circle fill="#f6f7f7" stroke="#f6f7f7" stroke-width="3" stroke-miterlimit="10" cx="1878.3" cy="85.4" r="16.7"/>
		<circle fill="#f6f7f7" stroke="#f6f7f7" stroke-width="3" stroke-miterlimit="10" cx="1751.3" cy="85.4" r="16.7"/>
	</g>
	<g id="Layer_3" display="none">
		<g display="inline">
			<line fill="#f6f7f7" x1="127.4" y1="1047.8" x2="732.6" y2="0"/>
			<g>
				<path fill="#f6f7f7" d="M129.5,1049c5.4-9.4,10.8-18.7,16.2-28.1c14.7-25.5,29.5-51,44.2-76.5c21.7-37.6,43.4-75.1,65.1-112.7
				c26.5-45.8,52.9-91.6,79.4-137.5c29-50.2,58-100.4,86.9-150.5c29.3-50.6,58.5-101.3,87.8-151.9c27.4-47.4,54.7-94.7,82.1-142.1
				c23.1-40,46.2-80,69.3-120c16.6-28.7,33.1-57.3,49.7-86c7.8-13.6,15.8-27,23.5-40.7c0.3-0.6,0.7-1.2,1-1.7
				c1.6-2.8-2.7-5.3-4.3-2.5c-5.4,9.4-10.8,18.7-16.2,28.1c-14.7,25.5-29.5,51-44.2,76.5c-21.7,37.6-43.4,75.1-65.1,112.7
				c-26.5,45.8-52.9,91.6-79.4,137.5c-29,50.2-58,100.4-86.9,150.5C409.3,554.7,380,605.3,350.8,656
				c-27.4,47.4-54.7,94.7-82.1,142.1c-23.1,40-46.2,80-69.3,120c-16.6,28.7-33.1,57.3-49.7,86c-7.8,13.6-15.8,27-23.5,40.7
				c-0.3,0.6-0.7,1.2-1,1.7C123.6,1049.3,127.9,1051.8,129.5,1049L129.5,1049z"/>
			</g>
		</g>
		<g display="inline">
			<line fill="#f6f7f7" x1="0" y1="1047.8" x2="605.2" y2="0"/>
			<g>
				<path fill="#f6f7f7" d="M2.2,1049c5.4-9.4,10.8-18.7,16.2-28.1c14.7-25.5,29.5-51,44.2-76.5c21.7-37.6,43.4-75.1,65.1-112.7
				c26.5-45.8,52.9-91.6,79.4-137.5c29-50.2,58-100.4,86.9-150.5c29.3-50.6,58.5-101.3,87.8-151.9c27.4-47.4,54.7-94.7,82.1-142.1
				c23.1-40,46.2-80,69.3-120c16.6-28.7,33.1-57.3,49.7-86c7.8-13.6,15.8-27,23.5-40.7c0.3-0.6,0.7-1.2,1-1.7
				c1.6-2.8-2.7-5.3-4.3-2.5c-5.4,9.4-10.8,18.7-16.2,28.1c-14.7,25.5-29.5,51-44.2,76.5c-21.7,37.6-43.4,75.1-65.1,112.7
				c-26.5,45.8-52.9,91.6-79.4,137.5c-29,50.2-58,100.4-86.9,150.5c-29.3,50.6-58.5,101.3-87.8,151.9
				c-27.4,47.4-54.7,94.7-82.1,142.1c-23.1,40-46.2,80-69.3,120c-16.6,28.7-33.1,57.3-49.7,86c-7.8,13.6-15.8,27-23.5,40.7
				c-0.3,0.6-0.7,1.2-1,1.7C-3.8,1049.3,0.5,1051.8,2.2,1049L2.2,1049z"/>
			</g>
		</g>
		<g display="inline">
			<line fill="#f6f7f7" x1="1781.6" y1="32.2" x2="1176.4" y2="1080"/>
			<g>
				<path fill="#f6f7f7" d="M1779.5,31c-5.4,9.4-10.8,18.7-16.2,28.1c-14.7,25.5-29.5,51-44.2,76.5c-21.7,37.6-43.4,75.1-65.1,112.7
				c-26.5,45.8-52.9,91.6-79.4,137.5c-29,50.2-58,100.4-86.9,150.5c-29.3,50.6-58.5,101.3-87.8,151.9
				c-27.4,47.4-54.7,94.7-82.1,142.1c-23.1,40-46.2,80-69.3,120c-16.6,28.7-33.1,57.3-49.7,86c-7.8,13.6-15.8,27-23.5,40.7
				c-0.3,0.6-0.7,1.2-1,1.7c-1.6,2.8,2.7,5.3,4.3,2.5c5.4-9.4,10.8-18.7,16.2-28.1c14.7-25.5,29.5-51,44.2-76.5
				c21.7-37.6,43.4-75.1,65.1-112.7c26.5-45.8,52.9-91.6,79.4-137.5c29-50.2,58-100.4,86.9-150.5c29.3-50.6,58.5-101.3,87.8-151.9
				c27.4-47.4,54.7-94.7,82.1-142.1c23.1-40,46.2-80,69.3-120c16.6-28.7,33.1-57.3,49.7-86c7.8-13.6,15.8-27,23.5-40.7
				c0.3-0.6,0.7-1.2,1-1.7C1785.4,30.7,1781.1,28.2,1779.5,31L1779.5,31z"/>
			</g>
		</g>
		<g display="inline">
			<line fill="#f6f7f7" x1="1909" y1="32.2" x2="1303.8" y2="1080"/>
			<g>
				<path fill="#f6f7f7" d="M1906.8,31c-5.4,9.4-10.8,18.7-16.2,28.1c-14.7,25.5-29.5,51-44.2,76.5c-21.7,37.6-43.4,75.1-65.1,112.7
				c-26.5,45.8-52.9,91.6-79.4,137.5c-29,50.2-58,100.4-86.9,150.5c-29.3,50.6-58.5,101.3-87.8,151.9
				c-27.4,47.4-54.7,94.7-82.1,142.1c-23.1,40-46.2,80-69.3,120c-16.6,28.7-33.1,57.3-49.7,86c-7.8,13.6-15.8,27-23.5,40.7
				c-0.3,0.6-0.7,1.2-1,1.7c-1.6,2.8,2.7,5.3,4.3,2.5c5.4-9.4,10.8-18.7,16.2-28.1c14.7-25.5,29.5-51,44.2-76.5
				c21.7-37.6,43.4-75.1,65.1-112.7c26.5-45.8,52.9-91.6,79.4-137.5c29-50.2,58-100.4,86.9-150.5c29.3-50.6,58.5-101.3,87.8-151.9
				c27.4-47.4,54.7-94.7,82.1-142.1c23.1-40,46.2-80,69.3-120c16.6-28.7,33.1-57.3,49.7-86c7.8-13.6,15.8-27,23.5-40.7
				c0.3-0.6,0.7-1.2,1-1.7C1912.8,30.7,1908.4,28.2,1906.8,31L1906.8,31z"/>
			</g>
		</g>
		<line display="inline" fill="#f6f7f7" stroke="#f6f7f7" stroke-miterlimit="10" x1="11" y1="929" x2="1931" y2="929"/>
		<line display="inline" fill="#f6f7f7" stroke="#f6f7f7" stroke-miterlimit="10" x1="5.5" y1="994.6" x2="1925.5" y2="994.6"/>
		<line display="inline" fill="#f6f7f7" stroke="#f6f7f7" stroke-miterlimit="10" x1="1920" y1="151" x2="0" y2="151"/>
		<line display="inline" fill="#f6f7f7" stroke="#f6f7f7" stroke-miterlimit="10" x1="1925.5" y1="85.4" x2="5.5" y2="85.4"/>
	</g>
</svg>
